<svg xmlns="http://www.w3.org/2000/svg" width="512" height="512" viewBox="0 0 512 512">
  <defs>
    <linearGradient id="iconBg" x1="0%" y1="0%" x2="100%" y2="100%">
      <stop offset="0%" style="stop-color:#7c3aed" />
      <stop offset="100%" style="stop-color:#a855f7" />
    </linearGradient>
  </defs>
  <rect width="512" height="512" rx="96" fill="url(#iconBg)"/>
  <!-- Game controller shape -->
  <g transform="translate(256,256)" fill="none" stroke="white" stroke-width="16" stroke-linecap="round" stroke-linejoin="round">
    <!-- Controller body -->
    <path d="M-120,-20 Q-120,-80 -60,-80 L60,-80 Q120,-80 120,-20 L120,20 Q120,80 80,100 L60,110 Q40,120 20,100 L10,80 Q0,60 -10,80 L-20,100 Q-40,120 -60,110 L-80,100 Q-120,80 -120,20 Z" fill="white" fill-opacity="0.2"/>
    <!-- D-pad -->
    <line x1="-80" y1="-30" x2="-80" y2="10"/>
    <line x1="-100" y1="-10" x2="-60" y2="-10"/>
    <!-- Buttons -->
    <circle cx="60" cy="-30" r="8" fill="white" fill-opacity="0.5"/>
    <circle cx="80" cy="-10" r="8" fill="white" fill-opacity="0.5"/>
    <circle cx="60" cy="10" r="8" fill="white" fill-opacity="0.5"/>
    <circle cx="40" cy="-10" r="8" fill="white" fill-opacity="0.5"/>
  </g>
</svg>