<svg xmlns="http://www.w3.org/2000/svg" width="64" height="64" viewBox="0 0 64 64">
  <defs>
    <linearGradient id="ffBg" x1="0%" y1="0%" x2="100%" y2="100%">
      <stop offset="0%" style="stop-color:#0a0a0f" />
      <stop offset="100%" style="stop-color:#1a1a25" />
    </linearGradient>
    <linearGradient id="flame" x1="0%" y1="100%" x2="0%" y2="0%">
      <stop offset="0%" style="stop-color:#ff4500" />
      <stop offset="50%" style="stop-color:#ff6b00" />
      <stop offset="100%" style="stop-color:#ffaa00" />
    </linearGradient>
  </defs>
  <rect width="64" height="64" rx="12" fill="url(#ffBg)"/>
  <!-- Flame outer -->
  <path d="M32 10 Q42 22 40 32 Q44 26 44 34 Q44 50 32 54 Q20 50 20 34 Q20 26 24 32 Q22 22 32 10Z"
        fill="url(#flame)" opacity="0.8"/>
  <!-- Flame inner -->
  <path d="M32 22 Q37 30 36 36 Q36 46 32 48 Q28 46 28 36 Q27 30 32 22Z"
        fill="#ffdd00" opacity="0.6"/>
  <!-- Flame core -->
  <ellipse cx="32" cy="40" rx="4" ry="6" fill="#ffffff" opacity="0.3"/>
</svg>